<svg width="23" height="24" viewBox="0 0 23 24" fill="none" xmlns="http://www.w3.org/2000/svg">
  <path id="apple-podcast"
    d="M5.11751 1.35453e-05C4.44504 -0.00156865 3.7789 0.135474 3.15733 0.403274C2.53577 0.671073 1.97102 1.06435 1.49551 1.56053C1.02001 2.05671 0.643112 2.64602 0.386471 3.29461C0.12983 3.9432 -0.00150329 4.63831 1.29809e-05 5.34001V18.66C-0.00150329 19.3617 0.12983 20.0568 0.386471 20.7054C0.643112 21.354 1.02001 21.9433 1.49551 22.4395C1.97102 22.9356 2.53577 23.3289 3.15733 23.5967C3.7789 23.8645 4.44504 24.0016 5.11751 24H17.8825C18.555 24.0016 19.2211 23.8645 19.8427 23.5967C20.4642 23.3289 21.029 22.9356 21.5045 22.4395C21.98 21.9433 22.3569 21.354 22.6135 20.7054C22.8702 20.0568 23.0015 19.3617 23 18.66V5.34001C23.0015 4.63831 22.8702 3.9432 22.6135 3.29461C22.3569 2.64602 21.98 2.05671 21.5045 1.56053C21.029 1.06435 20.4642 0.671073 19.8427 0.403274C19.2211 0.135474 18.555 -0.00156865 17.8825 1.35453e-05H5.11751ZM11.3706 2.56801C13.6093 2.56801 15.6333 3.47001 17.1743 5.15501C18.3473 6.42701 19.0066 7.774 19.3439 9.547C19.4589 10.137 19.4589 11.747 19.3507 12.411C18.9921 14.5215 17.8832 16.4129 16.2457 17.707C15.663 18.167 14.237 18.968 14.007 18.968C13.9227 18.968 13.915 18.877 13.9533 18.508C14.0223 17.916 14.0913 17.793 14.4133 17.652C14.927 17.428 15.801 16.778 16.3377 16.217C17.2733 15.2412 17.9383 14.0193 18.262 12.681C18.4613 11.857 18.4383 10.025 18.216 9.177C17.5183 6.48101 15.41 4.38501 12.8263 3.82501C12.075 3.66501 10.7103 3.66501 9.95133 3.82501C7.337 4.38501 5.17501 6.58501 4.51567 9.353C4.33934 10.105 4.33934 11.937 4.51567 12.689C4.95267 14.521 6.08734 16.201 7.57467 17.201C7.866 17.401 8.21867 17.609 8.36434 17.673C8.68634 17.817 8.75534 17.937 8.81667 18.529C8.855 18.889 8.84542 18.993 8.763 18.993C8.70934 18.993 8.31834 18.817 7.90434 18.609L7.866 18.579C5.49701 17.363 3.97901 15.305 3.42701 12.567C3.28901 11.861 3.26601 10.175 3.39826 9.527C3.74326 7.787 4.40259 6.42701 5.49892 5.22301C7.07825 3.48601 9.10992 2.56701 11.3716 2.56701L11.3706 2.56801ZM11.499 5.37801C11.891 5.38201 12.2686 5.41801 12.559 5.48401C15.227 6.10401 17.1206 8.892 16.7526 11.658C16.607 12.772 16.239 13.688 15.5873 14.538C15.2653 14.968 14.4833 15.688 14.3453 15.688C14.3232 15.688 14.2993 15.416 14.2993 15.085V14.48L14.698 13.984C16.2006 12.106 16.0933 9.482 14.4526 7.76C13.8163 7.09001 13.0803 6.69601 12.1296 6.51401C11.5163 6.39601 11.386 6.39601 10.742 6.50601C9.76446 6.67301 9.00738 7.06801 8.33463 7.762C6.6863 9.466 6.57896 12.104 8.08163 13.984L8.47742 14.48V15.088C8.47742 15.424 8.45154 15.696 8.41992 15.696C8.39117 15.696 8.16692 15.536 7.92925 15.336L7.89667 15.325C7.09934 14.661 6.39401 13.483 6.10267 12.328C5.92634 11.63 5.92634 10.304 6.11034 9.608C6.59334 7.73 7.91967 6.27301 9.75967 5.58901C10.1526 5.44401 10.8464 5.36901 11.499 5.37801ZM11.3745 8.368C11.6715 8.368 11.9686 8.428 12.1833 8.546C12.6599 8.81425 13.0175 9.26593 13.18 9.805C13.6246 11.383 12.0223 12.765 10.5733 12.059H10.5589C9.87658 11.728 9.50858 11.103 9.50092 10.289C9.50092 9.556 9.89192 8.918 10.5666 8.544C10.7813 8.427 11.0774 8.368 11.3745 8.368ZM11.3639 13.096C12.3107 13.092 12.9988 13.445 13.2518 14.066C13.4416 14.53 13.3707 15.998 13.0429 18.368C12.8206 20.024 12.6979 20.442 12.3912 20.724C11.9696 21.114 11.3716 21.222 10.8043 21.012H10.8014C10.1152 20.755 9.96763 20.407 9.68588 18.368C9.35909 15.998 9.28721 14.53 9.47696 14.066C9.72804 13.45 10.4104 13.1 11.3649 13.096H11.3639Z"
    fill="#9331CA" />
</svg>