<svg width="20" height="19" viewBox="0 0 20 19" fill="currentColor" xmlns="http://www.w3.org/2000/svg">
  <path
    d="M3.76175 9.40439V4.38871H1.88088C1.38204 4.38871 0.903629 4.58688 0.550896 4.93961C0.198163 5.29234 0 5.77075 0 6.26959V17.5549C0.000933103 17.6713 0.034274 17.7852 0.0962861 17.8837C0.158298 17.9823 0.246531 18.0616 0.351097 18.1128C0.451836 18.1587 0.562907 18.177 0.673025 18.166C0.783143 18.155 0.888384 18.115 0.978056 18.0502L4.2069 15.674H12.6332C12.8708 15.681 13.1074 15.6392 13.3282 15.5511C13.549 15.463 13.7493 15.3305 13.9168 15.1618C14.0844 14.9931 14.2154 14.7918 14.302 14.5704C14.3886 14.349 14.4287 14.1122 14.4201 13.8746V13.1661H7.52351C6.52583 13.1661 5.56901 12.7698 4.86355 12.0644C4.15808 11.3589 3.76175 10.4021 3.76175 9.40439Z" />
  <path
    d="M18.1818 0H7.52351C7.02467 0 6.54626 0.198163 6.19353 0.550896C5.8408 0.903629 5.64263 1.38204 5.64263 1.88088V9.40439C5.64263 9.90323 5.8408 10.3816 6.19353 10.7344C6.54626 11.0871 7.02467 11.2853 7.52351 11.2853H16.0188L19.0157 13.6113C19.1048 13.6772 19.2097 13.7182 19.3198 13.7303C19.43 13.7425 19.5414 13.7252 19.6426 13.6802C19.7493 13.6294 19.8395 13.5495 19.9027 13.4497C19.9659 13.3498 19.9997 13.2342 20 13.116V1.88088C20.0003 1.39271 19.8107 0.923566 19.4714 0.572581C19.1322 0.221596 18.6697 0.0162721 18.1818 0Z" />
</svg>