<svg width="21" height="22" viewBox="0 0 21 22" fill="none" xmlns="http://www.w3.org/2000/svg">
  <path
    d="M17.6126 3.7043C17.8065 2.57841 18.0918 1.87035 18.4074 1.86873C18.9964 1.87089 19.474 4.32675 19.474 7.35875C19.474 10.3907 18.9964 12.8482 18.4068 12.8482C18.1651 12.8482 17.9422 12.4309 17.7629 11.7315C17.4791 14.2918 16.89 16.0514 16.2084 16.0514C15.6807 16.0514 15.2074 14.9945 14.8897 13.3269C14.6727 16.4978 14.1267 18.7475 13.4887 18.7475C13.088 18.7475 12.7224 17.8558 12.4521 16.4047C12.1269 19.4006 11.3758 21.5 10.5003 21.5C9.62475 21.5 8.87146 19.4011 8.54786 16.4047C8.27917 17.8558 7.9141 18.7469 7.51188 18.7469C6.87329 18.7469 6.32838 16.4978 6.1103 13.3274C5.79262 14.9945 5.3204 16.052 4.79165 16.052C4.11051 16.052 3.52091 14.2923 3.23715 11.7315C3.05946 12.4331 2.83493 12.8482 2.59316 12.8482C2.00356 12.8482 1.52542 10.3907 1.52542 7.35875C1.52542 4.32675 2.00356 1.8682 2.59316 1.8682C2.90977 1.8682 3.19246 2.57841 3.38899 3.7043C3.70344 1.76212 4.21443 0.5 4.79165 0.5C5.47709 0.5 6.07154 2.28495 6.35261 4.8765C6.62721 2.99032 7.04505 1.78797 7.51242 1.78797C8.16718 1.78797 8.72393 4.15283 8.93015 7.45244C9.31784 5.76063 9.87998 4.69935 10.5013 4.69935C11.1227 4.69935 11.6843 5.76117 12.0715 7.4519C12.2788 4.15283 12.835 1.78743 13.4897 1.78743C13.9566 1.78743 14.3728 2.99032 14.6495 4.8765C14.9295 2.28495 15.524 0.5 16.21 0.5C16.785 0.5 17.2976 1.7632 17.6126 3.7043ZM0 6.81868C0 5.46341 0.342453 4.36444 0.765134 4.36444C1.18782 4.36444 1.53081 5.46287 1.53081 6.81868C1.53081 8.17449 1.18835 9.27293 0.765134 9.27293C0.341914 9.27293 0 8.17449 0 6.81868ZM19.4751 6.81868C19.4751 5.46341 19.8165 4.36444 20.2376 4.36444C20.6586 4.36444 21 5.46287 21 6.81868C21 8.17449 20.6586 9.27293 20.2376 9.27293C19.8165 9.27293 19.4751 8.17449 19.4751 6.81868Z"
    fill="#A338FF" />
</svg>