<svg width="23" height="28" viewBox="0 0 23 28" fill="none" xmlns="http://www.w3.org/2000/svg">
  <g id="google-podcast">
    <path
      d="M0 12.95C0 11.9835 0.78011 11.2 1.74242 11.2C2.70474 11.2 3.48485 11.9835 3.48485 12.95V15.05C3.48485 16.0165 2.70474 16.8 1.74242 16.8C0.78011 16.8 0 16.0165 0 15.05V12.95Z"
      fill="#0066D9" />
    <path
      d="M4.87879 18.55C4.87879 17.5835 5.6589 16.8 6.62121 16.8C7.58353 16.8 8.36364 17.5835 8.36364 18.55V20.65C8.36364 21.6165 7.58353 22.4 6.62121 22.4C5.6589 22.4 4.87879 21.6165 4.87879 20.65V18.55Z"
      fill="#EA4335" />
    <path
      d="M4.87879 7.35C4.87879 6.3835 5.6589 5.6 6.62121 5.6C7.58353 5.6 8.36364 6.3835 8.36364 7.35V13.65C8.36364 14.6165 7.58353 15.4 6.62121 15.4C5.6589 15.4 4.87879 14.6165 4.87879 13.65V7.35Z"
      fill="#EA4335" />
    <path
      d="M9.75758 8.75C9.75758 7.7835 10.5377 7 11.5 7C12.4623 7 13.2424 7.7835 13.2424 8.75V19.25C13.2424 20.2165 12.4623 21 11.5 21C10.5377 21 9.75758 20.2165 9.75758 19.25V8.75Z"
      fill="#FAB908" />
    <path
      d="M9.75758 24.15C9.75758 23.1835 10.5377 22.4 11.5 22.4C12.4623 22.4 13.2424 23.1835 13.2424 24.15V26.25C13.2424 27.2165 12.4623 28 11.5 28C10.5377 28 9.75758 27.2165 9.75758 26.25V24.15Z"
      fill="#FAB908" />
    <path
      d="M9.75758 1.75C9.75758 0.783502 10.5377 0 11.5 0C12.4623 0 13.2424 0.783502 13.2424 1.75V3.85C13.2424 4.8165 12.4623 5.6 11.5 5.6C10.5377 5.6 9.75758 4.8165 9.75758 3.85V1.75Z"
      fill="#FAB908" />
    <path
      d="M14.6364 7.35C14.6364 6.3835 15.4165 5.6 16.3788 5.6C17.3411 5.6 18.1212 6.3835 18.1212 7.35V9.45C18.1212 10.4165 17.3411 11.2 16.3788 11.2C15.4165 11.2 14.6364 10.4165 14.6364 9.45V7.35Z"
      fill="#34A853" />
    <path
      d="M14.6364 14.35C14.6364 13.3835 15.4165 12.6 16.3788 12.6C17.3411 12.6 18.1212 13.3835 18.1212 14.35V20.65C18.1212 21.6165 17.3411 22.4 16.3788 22.4C15.4165 22.4 14.6364 21.6165 14.6364 20.65V14.35Z"
      fill="#34A853" />
    <path
      d="M19.5152 12.95C19.5152 11.9835 20.2953 11.2 21.2576 11.2C22.2199 11.2 23 11.9835 23 12.95V15.05C23 16.0165 22.2199 16.8 21.2576 16.8C20.2953 16.8 19.5152 16.0165 19.5152 15.05V12.95Z"
      fill="#0066D9" />
  </g>
</svg>