<svg width="20" height="20" viewBox="0 0 20 20" fill="currentColor" xmlns="http://www.w3.org/2000/svg">
  <path
    d="M2.06076 6.17114C1.46936 6.33055 0.946989 6.68043 0.574467 7.16663C0.201945 7.65283 4.22903e-05 8.24825 0 8.86076V11.8987C0 12.6373 0.293399 13.3456 0.815652 13.8679C1.3379 14.3901 2.04623 14.6835 2.78481 14.6835H5.31645C5.51788 14.6835 5.71106 14.6035 5.8535 14.4611C5.99593 14.3187 6.07595 14.1255 6.07595 13.924V6.83544C6.07595 6.63401 5.99593 6.44083 5.8535 6.2984C5.71106 6.15597 5.51788 6.07595 5.31645 6.07595H3.61013C4.04456 3.57468 6.59139 1.51899 9.87342 1.51899C13.1554 1.51899 15.7023 3.57468 16.1367 6.07595H14.4304C14.2289 6.07595 14.0358 6.15597 13.8933 6.2984C13.7509 6.44083 13.6709 6.63401 13.6709 6.83544V13.924C13.6709 14.3433 14.0111 14.6835 14.4304 14.6835H16.1144C15.9433 15.4044 15.534 16.0464 14.9527 16.5058C14.3715 16.9653 13.6523 17.2152 12.9114 17.2152H11.7519C11.5756 16.7795 11.2533 16.4186 10.8402 16.1945C10.4271 15.9704 9.94886 15.8969 9.48751 15.9867C9.02615 16.0764 8.61038 16.3239 8.31146 16.6866C8.01253 17.0493 7.84906 17.5047 7.84906 17.9747C7.84906 18.4447 8.01253 18.9001 8.31146 19.2628C8.61038 19.6255 9.02615 19.8729 9.48751 19.9627C9.94886 20.0525 10.4271 19.979 10.8402 19.7549C11.2533 19.5307 11.5756 19.1699 11.7519 18.7342H12.9114C15.3418 18.7342 17.3509 16.9316 17.6759 14.5914C18.2697 14.4337 18.7947 14.0842 19.1693 13.5972C19.5438 13.1102 19.7469 12.5131 19.7468 11.8987V8.86076C19.7468 8.24825 19.5449 7.65283 19.1724 7.16663C18.7998 6.68043 18.2775 6.33055 17.6861 6.17114C17.2992 2.62278 13.8491 0 9.87342 0C5.89772 0 2.44759 2.62278 2.06076 6.17114Z" />
</svg>