<svg width="17" height="16" viewBox="0 0 17 16" fill="none" xmlns="http://www.w3.org/2000/svg">
  <path
    d="M5.09703 0H11.817C14.377 0 16.457 2.08 16.457 4.64V11.36C16.457 12.5906 15.9682 13.7708 15.098 14.641C14.2278 15.5111 13.0476 16 11.817 16H5.09703C2.53703 16 0.457031 13.92 0.457031 11.36V4.64C0.457031 3.4094 0.945887 2.22919 1.81606 1.35902C2.68622 0.488856 3.86643 0 5.09703 0ZM4.93703 1.6C4.17321 1.6 3.44067 1.90343 2.90056 2.44353C2.36046 2.98364 2.05703 3.71618 2.05703 4.48V11.52C2.05703 13.112 3.34503 14.4 4.93703 14.4H11.977C12.7409 14.4 13.4734 14.0966 14.0135 13.5565C14.5536 13.0164 14.857 12.2838 14.857 11.52V4.48C14.857 2.888 13.569 1.6 11.977 1.6H4.93703ZM12.657 2.8C12.9222 2.8 13.1766 2.90536 13.3641 3.09289C13.5517 3.28043 13.657 3.53478 13.657 3.8C13.657 4.06522 13.5517 4.31957 13.3641 4.50711C13.1766 4.69464 12.9222 4.8 12.657 4.8C12.3918 4.8 12.1375 4.69464 11.9499 4.50711C11.7624 4.31957 11.657 4.06522 11.657 3.8C11.657 3.53478 11.7624 3.28043 11.9499 3.09289C12.1375 2.90536 12.3918 2.8 12.657 2.8ZM8.45703 4C9.5179 4 10.5353 4.42143 11.2855 5.17157C12.0356 5.92172 12.457 6.93913 12.457 8C12.457 9.06087 12.0356 10.0783 11.2855 10.8284C10.5353 11.5786 9.5179 12 8.45703 12C7.39617 12 6.37875 11.5786 5.6286 10.8284C4.87846 10.0783 4.45703 9.06087 4.45703 8C4.45703 6.93913 4.87846 5.92172 5.6286 5.17157C6.37875 4.42143 7.39617 4 8.45703 4ZM8.45703 5.6C7.82051 5.6 7.21006 5.85286 6.75997 6.30294C6.30989 6.75303 6.05703 7.36348 6.05703 8C6.05703 8.63652 6.30989 9.24697 6.75997 9.69706C7.21006 10.1471 7.82051 10.4 8.45703 10.4C9.09355 10.4 9.704 10.1471 10.1541 9.69706C10.6042 9.24697 10.857 8.63652 10.857 8C10.857 7.36348 10.6042 6.75303 10.1541 6.30294C9.704 5.85286 9.09355 5.6 8.45703 5.6Z"
    fill="currentColor" />
</svg>