<svg width="20" height="15" viewBox="0 0 20 15" fill="currentColor" xmlns="http://www.w3.org/2000/svg">
  <path
    d="M14.6802 0C15.7155 0 16.5102 0.789109 17.099 1.63813L17.2984 1.93861L17.4809 2.23815C17.5389 2.3355 17.5942 2.43285 17.6475 2.52646C18.3842 3.84351 19.0254 5.56308 19.4495 7.26205C19.8707 8.94792 20.1038 10.7087 19.9549 12.0931C19.8052 13.4832 19.0891 14.9772 17.4884 14.9772C16.0525 14.9772 14.9208 14.2096 14.0015 13.4598L12.9625 12.5883C12.0985 11.8806 11.1531 11.2329 9.99982 11.2329C8.84658 11.2329 7.90021 11.8806 7.03809 12.5883L5.99904 13.4588C5.07795 14.2096 3.94624 14.9772 2.51124 14.9772C0.90962 14.9772 0.193525 13.4832 0.0446891 12.0931C-0.10321 10.7077 0.128936 8.94792 0.550168 7.26205C0.974209 5.56308 1.61542 3.84351 2.35211 2.52646L2.51873 2.23721L2.70126 1.93861L2.90065 1.63813C3.48944 0.789109 4.28416 0 5.31946 0C5.79685 0 6.27144 0.116073 6.73761 0.252739L7.2927 0.423105C7.38443 0.451187 7.47523 0.478333 7.56603 0.503607C8.37573 0.735753 9.20416 0.936072 9.99982 0.936072C10.7955 0.936072 11.6239 0.735753 12.4336 0.503607L13.262 0.253675C13.7282 0.116073 14.2028 0 14.6802 0ZM6.72357 3.74429C6.10291 3.74429 5.50768 3.99084 5.06881 4.42971C4.62994 4.86858 4.38338 5.46382 4.38338 6.08447C4.38338 6.70513 4.62994 7.30036 5.06881 7.73923C5.50768 8.1781 6.10291 8.42465 6.72357 8.42465C7.34422 8.42465 7.93945 8.1781 8.37832 7.73923C8.81719 7.30036 9.06375 6.70513 9.06375 6.08447C9.06375 5.46382 8.81719 4.86858 8.37832 4.42971C7.93945 3.99084 7.34422 3.74429 6.72357 3.74429ZM13.2761 3.74429C13.0278 3.74429 12.7897 3.84291 12.6142 4.01846C12.4386 4.19401 12.34 4.4321 12.34 4.68036V5.1484H11.872C11.6237 5.1484 11.3856 5.24702 11.2101 5.42257C11.0345 5.59812 10.9359 5.83621 10.9359 6.08447C10.9359 6.33273 11.0345 6.57083 11.2101 6.74637C11.3856 6.92192 11.6237 7.02054 11.872 7.02054H12.34V7.48858C12.34 7.73684 12.4386 7.97493 12.6142 8.15048C12.7897 8.32603 13.0278 8.42465 13.2761 8.42465C13.5243 8.42465 13.7624 8.32603 13.938 8.15048C14.1135 7.97493 14.2121 7.73684 14.2121 7.48858V7.02054H14.6802C14.9284 7.02054 15.1665 6.92192 15.3421 6.74637C15.5176 6.57083 15.6163 6.33273 15.6163 6.08447C15.6163 5.83621 15.5176 5.59812 15.3421 5.42257C15.1665 5.24702 14.9284 5.1484 14.6802 5.1484H14.2121V4.68036C14.2121 4.4321 14.1135 4.19401 13.938 4.01846C13.7624 3.84291 13.5243 3.74429 13.2761 3.74429ZM6.72357 5.61643C6.8477 5.61643 6.96674 5.66575 7.05452 5.75352C7.14229 5.84129 7.1916 5.96034 7.1916 6.08447C7.1916 6.2086 7.14229 6.32765 7.05452 6.41542C6.96674 6.5032 6.8477 6.55251 6.72357 6.55251C6.59943 6.55251 6.48039 6.5032 6.39261 6.41542C6.30484 6.32765 6.25553 6.2086 6.25553 6.08447C6.25553 5.96034 6.30484 5.84129 6.39261 5.75352C6.48039 5.66575 6.59943 5.61643 6.72357 5.61643Z" />
</svg>