<svg width="17" height="16" viewBox="0 0 17 16" fill="currentColor" xmlns="http://www.w3.org/2000/svg">
	<path
		d="M14.9346 0C15.4061 0 15.8583 0.187301 16.1917 0.520699C16.5251 0.854097 16.7124 1.30628 16.7124 1.77778V14.2222C16.7124 14.6937 16.5251 15.1459 16.1917 15.4793C15.8583 15.8127 15.4061 16 14.9346 16H2.49018C2.01868 16 1.5665 15.8127 1.2331 15.4793C0.899703 15.1459 0.712402 14.6937 0.712402 14.2222V1.77778C0.712402 1.30628 0.899703 0.854097 1.2331 0.520699C1.5665 0.187301 2.01868 0 2.49018 0H14.9346ZM14.4902 13.7778V9.06667C14.4902 8.29813 14.1849 7.56107 13.6414 7.01763C13.098 6.47419 12.3609 6.16889 11.5924 6.16889C10.8368 6.16889 9.95685 6.63111 9.53018 7.32444V6.33778H7.05018V13.7778H9.53018V9.39556C9.53018 8.71111 10.0813 8.15111 10.7657 8.15111C11.0958 8.15111 11.4123 8.28222 11.6457 8.5156C11.8791 8.74898 12.0102 9.06551 12.0102 9.39556V13.7778H14.4902ZM4.16129 4.94222C4.55735 4.94222 4.93718 4.78489 5.21724 4.50484C5.49729 4.22478 5.65462 3.84495 5.65462 3.44889C5.65462 2.62222 4.98796 1.94667 4.16129 1.94667C3.76288 1.94667 3.38078 2.10494 3.09906 2.38666C2.81734 2.66838 2.65907 3.05047 2.65907 3.44889C2.65907 4.27556 3.33462 4.94222 4.16129 4.94222ZM5.39685 13.7778V6.33778H2.93462V13.7778H5.39685Z" />
</svg>