<svg width="41" height="41" viewBox="0 0 41 41" fill="currentColor" xmlns="http://www.w3.org/2000/svg">
  <path
    d="M39.2487 8.29419V9.22552H37.5097V10.0799H36.6091V7.40875H35.6922V8.29419H34.8538V9.19443H34.0154V8.309H33.1459V10.9327H34.0154V11.8019H34.0095V12.6814H33.1296V13.5254H27.926V12.6251H26.978V11.8182H26.1396V9.21072H26.978V7.43985H27.926V3.94697H27.0091V3.06154H26.0922V2.22349H22.629V3.09263H21.7744V4.89312H20.936V9.25514H21.7744V10.0932H20.9197V10.9623H18.2327V10.0932H16.5396V9.25514H14.8629V8.27642H13.9V6.58551H14.848V4.84721H15.7175V3.94697H13.9163V3.10892H12.2544V1.33805H11.3227V2.23829H10.4843V1.38395H9.64589V0.5H8.729V2.22349H7.87432V9.24181H8.76011V10.0799H10.4843V10.9653H11.416V11.7574H12.2544V14.5515H11.416V18.8839H10.5302V23.2163H11.416V24.8465H7.781V24.0084H5.21844V24.8465H4.38005V26.6159H3.49426V28.3852H2.7492V30.1546H1.81749V30.8994H0.931705V31.8781H0V32.7636H1.72417V31.847H2.60996V32.7014H3.46464V33.5705H5.17104V32.7043H6.02128V33.5705H6.97372V30.0776H6.11904V29.2396H6.97372V28.3704H9.64589V29.2248H16.5574V30.0791H17.4121V31.8959H16.5737V32.7191H15.719V34.4574H14.8643V35.2807H13.8852V36.1661H15.7175V35.297H17.3943V34.4426H19.1807V33.6194H20.0354V32.7502H20.9212V31.9122H21.7907V30.9498H25.2849V31.8663H27.926V32.7206H29.6339V35.3295H30.4886V36.1528H28.7807V37.0841H27.9112V37.9533H26.9795V38.8076H28.7807V40.5H30.4886V39.6619H32.3209V40.5H33.1903V39.6457H34.0287V35.2984H34.8671V30.9512H33.1429V30.0969H31.3255V27.5191H32.2883V25.7023H33.1429V23.1556H33.9976V19.6627H33.1429V16.9768H37.523V16.1698H38.3614V13.5105H39.2472V10.949H40.0708V8.29419H39.2487ZM15.7368 18.8009H14.8629V24.0292H13.8956V22.2242H13.0572V18.8246H13.8956L13.8882 17.0079H14.8629V16.158H15.7368V18.8009ZM21.7936 17.8933H20.9671V22.2361H20.0354V25.7289H18.2757V20.4978H19.2074V15.3318H20.0339V14.4345H20.9656V13.5031H21.7921V17.8933H21.7936ZM25.2701 21.3817V24.8746H24.4317V27.5146H22.6305V25.7289H23.5933V21.3817H24.4317V17.0345L25.2701 17.036V14.4404H26.1559V15.2947H27.0254V17.033H26.1485V21.3817H25.2701ZM30.5197 24.8761H29.6339V25.7304H28.8103V26.5537H27.9408V27.5161H27.0239V24.8761H27.9408V21.3669H28.7718V17.8889H29.6798V18.7891H30.5182V24.8761H30.5197Z" />
</svg>