<svg width="180" height="197" viewBox="0 0 180 197" fill="none" xmlns="http://www.w3.org/2000/svg">
  <path
    d="M44.493 186.733C45.6878 186.733 46.7045 186.908 47.5393 187.253C47.6544 187.301 47.7211 187.427 47.6989 187.549L47.4651 188.859C47.4354 189.022 47.2685 189.115 47.1089 189.063C46.3483 188.799 45.5542 188.666 44.7305 188.666C44.2333 188.666 43.788 188.729 43.391 188.859C42.994 188.989 42.6563 189.189 42.3706 189.46C42.0886 189.734 41.8697 190.079 41.7176 190.502C41.5654 190.925 41.4875 191.425 41.4875 192.011C41.4875 193.042 41.7584 193.821 42.3001 194.348C42.8419 194.875 43.6359 195.138 44.6897 195.138C44.916 195.138 45.1349 195.12 45.3427 195.086C45.5505 195.053 45.7249 195.008 45.8622 194.96V192.464C45.8622 192.316 45.9809 192.197 46.1293 192.197H47.7805C47.9289 192.197 48.0477 192.316 48.0477 192.464V196.106C48.0477 196.21 47.9883 196.31 47.8918 196.351C47.4911 196.529 47.0013 196.677 46.4188 196.796C45.7583 196.93 45.0719 197 44.3594 197C43.5246 197 42.7825 196.878 42.1294 196.637C41.4764 196.392 40.9198 196.054 40.4634 195.617C40.0071 195.179 39.6583 194.656 39.4134 194.048C39.1685 193.439 39.0497 192.761 39.0497 192.019C39.0497 191.225 39.1722 190.506 39.4134 189.853C39.6546 189.204 40.0108 188.647 40.4783 188.187C40.9458 187.727 41.5135 187.368 42.1888 187.115C42.8604 186.86 43.6285 186.733 44.493 186.733Z"
    fill="white" />
  <path
    d="M68.7633 194.901H65.3645C65.2458 194.901 65.1419 194.979 65.1048 195.09L64.615 196.629C64.5779 196.74 64.474 196.818 64.3553 196.818H62.4295C62.2403 196.818 62.1104 196.629 62.1772 196.451L65.6651 187.086C65.7059 186.978 65.806 186.908 65.9174 186.908H68.2179C68.3329 186.908 68.4331 186.978 68.4702 187.086L71.958 196.451C72.0248 196.629 71.8912 196.818 71.7057 196.818H69.7763C69.6575 196.818 69.5536 196.744 69.5202 196.633L69.0156 195.09C68.9822 194.975 68.8783 194.901 68.7633 194.901ZM66.1548 192.968H67.9693C68.1511 192.968 68.2809 192.794 68.229 192.62L67.3273 189.641C67.2494 189.385 66.8858 189.385 66.8079 189.641L65.8951 192.62C65.8432 192.79 65.973 192.968 66.1548 192.968Z"
    fill="white" />
  <path
    d="M92.7069 195.242H90.6921C90.5883 195.242 90.4955 195.183 90.451 195.09L89.0447 192.204C88.9222 191.956 88.5475 192.03 88.5326 192.308L88.3063 196.562C88.2989 196.703 88.1802 196.818 88.0392 196.818H86.1876C86.0318 196.818 85.9093 196.685 85.9205 196.529L86.6255 187.16C86.6366 187.019 86.7516 186.912 86.8926 186.912H88.6736C88.7775 186.912 88.874 186.971 88.9185 187.067L91.4602 192.453C91.5567 192.657 91.8498 192.657 91.9463 192.453L94.488 187.067C94.5325 186.975 94.629 186.912 94.7329 186.912H96.5139C96.6549 186.912 96.7699 187.019 96.781 187.16L97.486 196.529C97.4972 196.685 97.3747 196.818 97.2189 196.818H95.3674C95.2226 196.818 95.1076 196.707 95.1002 196.562L94.8702 192.308C94.8553 192.03 94.4806 191.956 94.3581 192.204L92.9518 195.09C92.9036 195.183 92.8071 195.242 92.7069 195.242Z"
    fill="white" />
  <path
    d="M112.358 186.912H117.994C118.142 186.912 118.265 187.03 118.265 187.182V188.577C118.265 188.725 118.146 188.848 117.994 188.848H114.799C114.651 188.848 114.528 188.966 114.528 189.118V190.572C114.528 190.721 114.647 190.843 114.799 190.843H117.816C117.964 190.843 118.087 190.962 118.087 191.114V192.508C118.087 192.657 117.968 192.779 117.816 192.779H114.799C114.651 192.779 114.528 192.898 114.528 193.05V194.623C114.528 194.771 114.647 194.893 114.799 194.893H118.038C118.187 194.893 118.309 195.012 118.309 195.164V196.559C118.309 196.707 118.191 196.829 118.038 196.829H112.358C112.209 196.829 112.087 196.711 112.087 196.559V187.19C112.087 187.034 112.209 186.912 112.358 186.912Z"
    fill="white" />
  <path
    d="M139.485 193.858C139.485 194.296 139.4 194.704 139.225 195.086C139.051 195.468 138.802 195.798 138.472 196.084C138.146 196.366 137.749 196.588 137.281 196.751C136.813 196.915 136.283 196.996 135.689 196.996C135.144 196.996 134.598 196.937 134.053 196.818C133.585 196.718 133.151 196.577 132.743 196.395C132.624 196.344 132.561 196.206 132.595 196.08L132.947 194.749C132.988 194.589 133.162 194.508 133.314 194.574C133.585 194.689 133.882 194.793 134.201 194.882C134.639 195.005 135.11 195.068 135.615 195.068C136.031 195.068 136.376 194.99 136.643 194.838C136.91 194.686 137.044 194.433 137.044 194.085C137.044 193.836 136.929 193.61 136.695 193.41C136.461 193.206 136.038 192.991 135.422 192.764C134.45 192.397 133.741 191.978 133.296 191.507C132.851 191.036 132.628 190.435 132.628 189.701C132.628 188.74 132.943 188.006 133.574 187.498C134.205 186.993 135.073 186.741 136.186 186.741C136.75 186.741 137.292 186.804 137.808 186.926C138.238 187.03 138.613 187.16 138.932 187.312C139.044 187.368 139.099 187.494 139.069 187.613L138.773 188.918C138.736 189.085 138.557 189.167 138.402 189.104C138.138 188.996 137.856 188.903 137.559 188.829C137.147 188.725 136.724 188.673 136.287 188.673C135.919 188.673 135.626 188.736 135.4 188.859C135.177 188.981 135.066 189.193 135.066 189.493C135.066 189.63 135.084 189.753 135.125 189.849C135.166 189.949 135.237 190.042 135.34 190.131C135.444 190.22 135.589 190.309 135.778 190.398C135.967 190.487 136.205 190.591 136.491 190.709C136.906 190.88 137.3 191.058 137.667 191.244C138.034 191.433 138.35 191.652 138.62 191.896C138.888 192.145 139.099 192.427 139.251 192.746C139.407 193.061 139.485 193.432 139.485 193.858Z"
    fill="white" />
  <path
    d="M0.000560842 142.533C-0.0996222 126.251 13.2359 116.177 28.8199 116.752C31.0016 116.834 32.8124 117.698 32.6268 120.086C32.4487 122.405 33.0869 125.494 29.5434 126.14C27.7847 126.458 25.9665 126.44 24.1855 126.651C18.2821 127.352 12.8388 132.86 11.581 139.362C10.3639 145.656 12.7535 151.91 18.3749 154.142C21.577 155.415 25.5806 155.188 29.139 154.78C31.4543 154.517 32.1408 152.054 32.0406 150.708C31.9478 149.462 29.8365 147.718 28.3301 147.348C23.7402 146.209 21.8701 143.576 23.7625 139.147C24.2968 137.893 26.3672 136.68 27.8329 136.547C34.2928 135.954 39.8623 139.518 41.8214 145.048C43.9846 151.149 41.5802 159.376 36.2742 162.758C28.6084 167.651 20.5418 167.413 12.631 163.467C4.08951 159.216 0.141559 151.958 0.000560842 142.533Z"
    fill="white" />
  <path
    d="M138.784 145.46C138.784 134.704 138.698 123.458 138.836 112.216C138.877 108.933 140.624 107.999 144.494 108.166C147.604 108.299 148.008 110.18 147.878 112.665C147.674 116.63 147.574 120.598 147.37 124.563C147.247 126.967 148.041 127.942 150.676 127.582C163.496 125.821 176.441 139.036 179.866 151.691C180.608 154.432 178.167 158.145 174.931 158.92C171.803 159.669 171.384 157.143 170.612 155.092C169.414 151.899 166.846 144.736 165.629 141.55C163.492 135.961 154.234 133.902 150.895 135.85C149.722 136.532 148.839 138.709 148.824 140.211C148.75 146.928 149.054 153.649 149.166 160.37C149.181 161.345 149.032 162.365 148.743 163.3C147.863 166.123 145.611 166.742 142.98 166.69C140.357 166.642 140.023 164.669 139.878 162.796C139.444 157.191 139.159 151.572 138.784 145.46Z"
    fill="white" />
  <path
    d="M83.5309 157.692C83.5309 152.666 83.5458 147.641 83.5272 142.619C83.5161 139.388 84.7517 138.55 87.4418 138.587C90.0206 138.624 92.8331 138.72 92.937 142.244C93.2264 152.281 93.4899 162.321 93.4899 172.357C93.4899 176.563 91.7348 177.773 87.5346 177.543C84.2508 177.361 82.4957 176.018 82.6404 172.406C82.8334 167.51 83.505 162.595 83.505 157.692C83.5124 157.692 83.5235 157.692 83.5309 157.692Z"
    fill="white" />
  <path
    d="M93.9203 128.472C93.9166 132.404 92.7143 133.613 88.7887 133.639C83.902 133.672 82.2026 132.226 82.2471 128.072C82.2916 123.747 83.8389 121.948 87.5271 121.933C92.3136 121.915 93.924 123.565 93.9203 128.472Z"
    fill="white" />
  <path
    d="M95.4489 135.946C98.0574 126.607 105.56 123.321 117.767 122.634C126.383 122.149 133.481 127.682 136.672 136.551C137.722 139.47 138.691 142.478 139.158 145.53C140.142 151.924 138.097 157.525 133.066 161.553C124.19 168.652 114.024 169.268 103.471 166.338C99.0852 165.117 96.4062 161.813 95.2597 157.536C92.321 145.185 95.4489 135.946 95.4489 135.946ZM103.538 146.75C103.538 148.19 103.393 149.643 103.564 151.064C104.113 155.585 108.896 160.27 113.107 160.541C118.387 160.882 127.237 155.719 129.548 150.956C132.045 145.808 130.992 141.05 126.387 136.68C121.055 131.621 114.999 130.542 109.319 133.513C103.816 136.387 103.245 141.387 103.538 146.75Z"
    fill="white" />
  <path
    d="M115.575 138.594C120.057 138.602 122.465 140.208 122.45 143.175C122.432 146.176 119.196 148.568 115.148 148.579C111.916 148.586 110.057 146.743 110.002 143.475C109.942 140.085 111.656 138.587 115.575 138.594Z"
    fill="white" />
  <path
    d="M80.6924 151.264C75.1453 148.475 69.7205 147.051 64.3477 143.935C60.385 141.636 60.4555 139.885 63.0454 136.172C66.5258 131.184 66.1176 126.195 61.6725 123.617C57.1976 121.025 52.3963 119.975 47.12 121.266C44.0069 122.026 43.0347 123.532 42.9939 126.644C42.827 138.724 42.4485 150.801 42.0478 162.873C41.788 170.629 41.8177 170.733 49.6431 170.221C49.7618 170.214 49.8769 170.206 49.9956 170.21C52.1774 170.225 53.1606 169.223 53.1161 166.968C53.0308 162.391 53.0679 157.807 53.1273 153.226C53.1458 151.887 53.4092 150.556 53.6653 148.319C59.5798 151.902 64.8412 155.096 70.1101 158.278C77.3493 162.655 75.7055 163.86 81.7202 156.071C83.4122 153.879 83.427 152.64 80.6924 151.264ZM54.9454 133.443C53.2089 133.446 52.2145 132.456 52.1848 130.705C52.1551 128.888 53.0716 128.087 55.1754 128.087C57.5798 128.09 58.8711 128.951 58.8637 130.542C58.8525 132.152 57.116 133.435 54.9454 133.443Z"
    fill="white" />
  <path
    d="M137.574 19.5242V21.8572H133.218V23.9972H130.962V17.3062H128.665V19.5242H126.565V21.7793H124.465V19.5613H122.287V26.1336H124.465V28.3108H124.45V30.514H122.246V32.6281H109.211V30.373H106.836V28.3516H104.736V21.8201H106.836V17.3841H109.211V8.63456H106.914V6.41658H104.618V4.31728H95.9424V6.49446H93.8015V11.0046H91.7013V21.9313H93.8015V24.0306H91.6605V26.2078H84.9297V24.0306H80.6886V21.9313H76.4883V19.4797H74.0765V15.244H76.4512V10.8896H78.6293V8.63456H74.1173V6.53526H69.9542V2.0993H67.6203V4.35437H65.5202V2.21427H63.42V0H61.1232V4.31728H58.9823V21.898H61.2012V23.9972H65.5202V26.2152H67.854V28.1996H69.9542V35.1984H67.854V46.051H65.6352V56.9035H67.854V60.9871H58.7485V58.8878H52.3294V60.9871H50.2293V65.4194H48.0104V69.8517H46.144V74.2839H43.8101V76.1495H41.5913V78.6012H39.2574V80.8192H43.5764V78.5233H45.7952V80.6634H47.9362V82.8406H52.2107V80.6708H54.3405V82.8406H56.7263V74.091H54.5854V71.9918H56.7263V69.8146H63.42V71.9547H80.7331V74.0948H82.8741V78.6457H80.7739V80.7079H78.633V85.0623H76.4921V87.1245H74.0394V89.3425H78.6293V87.1653H82.8296V85.0252H87.3044V82.963H89.4453V80.7858H91.6642V78.6865H93.8423V76.2757H102.595V78.5715H109.211V80.7116H113.489V87.2469H115.63V89.3091H111.352V91.6421H109.174V93.8192H106.84V95.9593H111.352V100.199H115.63V98.0994H120.22V100.199H122.398V98.0586H124.498V87.169H126.598V76.2794H122.279V74.1393H117.727V67.6819H120.138V63.1309H122.279V56.7515H124.42V48.0019H122.279V41.2738H133.251V39.2524H135.351V32.591H137.57V26.1744H139.633V19.5242H137.574ZM78.6775 45.8433H76.4883V58.9398H74.0654V54.4185H71.9653V45.9026H74.0654L74.0468 41.3517H76.4883V39.2227H78.6775V45.8433ZM93.8497 43.5697H91.7792V54.4482H89.4453V63.1977H85.0373V50.0938H87.3712V37.1531H89.4416V34.9054H91.7755V32.5725H93.846V43.5697H93.8497ZM102.558 52.3081V61.0576H100.458V67.6708H95.9461V63.1977H98.3579V52.3081H100.458V41.4184L102.558 41.4221V34.9203H104.777V37.0604H106.955V41.4147H104.759V52.3081H102.558ZM115.708 61.0613H113.489V63.2014H111.426V65.2636H109.248V67.6745H106.951V61.0613H109.248V52.271H111.33V43.5585H113.604V45.8136H115.704V61.0613H115.708Z"
    fill="white" />
</svg>