<svg width="28" height="12" viewBox="0 0 28 12" fill="none" xmlns="http://www.w3.org/2000/svg">
  <path
    d="M1.3707 6.2578C1.31335 6.2578 1.2616 6.31009 1.25461 6.37063L0.983265 8.84337L1.25461 11.2597C1.2616 11.3271 1.31335 11.3725 1.3707 11.3725C1.42804 11.3725 1.4756 11.3271 1.48818 11.2597L1.7833 8.84337L1.4686 6.37063C1.4686 6.30734 1.41685 6.2578 1.3651 6.2578M0.316099 7.20864C0.244767 7.20864 0.2098 7.24992 0.193016 7.31735L0 8.84337L0.193016 10.346C0.193016 10.4093 0.244767 10.4533 0.297917 10.4533C0.352465 10.4533 0.400019 10.401 0.419601 10.3336L0.665767 8.81998L0.419601 7.28983C0.419601 7.21965 0.36785 7.18525 0.314701 7.18525M2.44907 5.77481C2.37634 5.77481 2.3092 5.82847 2.3092 5.89452L2.06304 8.83787L2.32599 11.6601C2.32599 11.7275 2.37774 11.7977 2.46446 11.7977C2.53719 11.7977 2.58894 11.7275 2.60712 11.6601L2.90224 8.81998L2.60712 5.89452C2.58894 5.8271 2.53439 5.75692 2.46446 5.75692M3.56941 5.65372C3.48129 5.65372 3.40996 5.7239 3.39317 5.80921L3.16799 8.83787L3.41555 11.7592C3.43234 11.8459 3.50087 11.9161 3.58619 11.9161C3.6757 11.9161 3.74424 11.8459 3.76102 11.7454L4.04216 8.83787L3.76102 5.82847C3.7614 5.80825 3.75765 5.78816 3.75 5.76938C3.74234 5.75061 3.73095 5.73353 3.71647 5.71917C3.702 5.7048 3.68475 5.69343 3.66573 5.68574C3.64672 5.67804 3.62633 5.67417 3.60577 5.67436L3.56941 5.65372ZM4.91493 6.0679C4.91439 6.04453 4.90912 6.0215 4.89945 6.00015C4.88977 5.9788 4.87586 5.95956 4.85855 5.94355C4.84124 5.92754 4.82086 5.91508 4.7986 5.9069C4.77634 5.89872 4.75265 5.89498 4.7289 5.8959C4.68058 5.89473 4.63367 5.91197 4.59796 5.94402C4.56226 5.97607 4.54052 6.02046 4.53728 6.0679L4.28273 8.85576L4.5191 11.7977C4.51891 11.8216 4.52357 11.8452 4.5328 11.8672C4.54203 11.8893 4.55564 11.9093 4.57284 11.9261C4.59004 11.9429 4.61048 11.9561 4.63296 11.965C4.65543 11.9739 4.6795 11.9783 4.70373 11.978C4.79044 11.978 4.87576 11.9023 4.87576 11.7963L5.14011 8.853L4.87576 6.05139L4.91493 6.0679ZM5.85763 4.10568C5.80292 4.10776 5.75108 4.13025 5.71263 4.16859C5.67418 4.20693 5.65201 4.25824 5.65063 4.31208L5.40446 8.853L5.62265 11.7963C5.62265 11.9023 5.71496 11.9849 5.83245 11.9849C5.94155 11.9849 6.03526 11.883 6.04225 11.7785L6.28562 8.83787L6.04365 4.27906C6.03386 4.15797 5.94015 4.0699 5.83385 4.0699M6.95279 3.02136C6.89218 3.02383 6.83458 3.04799 6.7908 3.08929C6.74702 3.13059 6.72007 3.18619 6.71501 3.24565L6.50521 8.83649L6.69823 11.7606C6.69823 11.8982 6.80313 12 6.92621 12C7.0465 12 7.1514 11.8982 7.16958 11.7606L7.39616 8.83649L7.17098 3.26079C7.1528 3.12319 7.0479 3.01998 6.92621 3.01998M8.08151 2.5081C7.93885 2.5081 7.83535 2.60855 7.81856 2.74615L7.62415 8.80071L7.81856 11.6931C7.83535 11.8307 7.93885 11.9518 8.08151 11.9518C8.15045 11.9498 8.21596 11.9218 8.2646 11.8737C8.31323 11.8256 8.34131 11.761 8.34306 11.6931L8.57105 8.80071L8.34167 2.74615C8.34167 2.60855 8.21998 2.48746 8.07872 2.48746M9.53054 2.53975C9.5311 2.50363 9.52429 2.46777 9.5105 2.4343C9.49671 2.40083 9.47623 2.37042 9.45027 2.34488C9.42431 2.31934 9.39341 2.29919 9.35938 2.28562C9.32536 2.27206 9.28891 2.26536 9.2522 2.26591C9.17856 2.2673 9.10828 2.29651 9.05594 2.34749C9.0036 2.39847 8.97321 2.46731 8.97107 2.53975L8.79623 8.7842L8.96967 11.6587C8.99065 11.8115 9.11093 11.9326 9.26898 11.9326C9.42703 11.9326 9.55012 11.8115 9.55012 11.6587L9.74034 8.7842L9.55012 2.52323L9.53054 2.53975ZM10.4047 2.38701C10.2467 2.38701 10.1068 2.52461 10.1068 2.67735L9.93195 8.78558L10.1068 11.6243C10.1068 11.7963 10.2467 11.9174 10.4047 11.9174C10.4857 11.9149 10.5625 11.8812 10.6184 11.8236C10.6744 11.7659 10.7052 11.6889 10.704 11.6092L10.8789 8.76906L10.683 2.67597C10.683 2.5081 10.5432 2.36637 10.3683 2.36637M11.5404 2.55763C11.4968 2.55745 11.4537 2.56576 11.4134 2.58209C11.3731 2.59841 11.3364 2.62243 11.3056 2.65275C11.2748 2.68307 11.2504 2.71909 11.2338 2.75874C11.2172 2.79839 11.2088 2.84088 11.2089 2.88376L11.0887 8.78695L11.2467 11.6257C11.2467 11.7963 11.3866 11.9436 11.5768 11.9436C11.7516 11.9436 11.8943 11.806 11.9083 11.6175L12.0495 8.8131L11.8929 2.9443C11.8789 2.75578 11.7348 2.6168 11.5614 2.6168M12.9433 1.53524C12.8844 1.50128 12.8172 1.48369 12.7489 1.48433C12.6789 1.48433 12.609 1.50221 12.5573 1.53524C12.5046 1.56514 12.4608 1.60802 12.4301 1.65966C12.3995 1.7113 12.383 1.76991 12.3824 1.82971V1.89851L12.2621 8.83924L12.3964 11.6505V11.6601C12.4048 11.7289 12.43 11.8142 12.4803 11.8665C12.5503 11.9367 12.6482 11.9849 12.7545 11.9849C12.8456 11.98 12.9322 11.944 12.9992 11.883C13.0335 11.849 13.0606 11.8086 13.0789 11.7642C13.0971 11.7198 13.1062 11.6722 13.1055 11.6243L13.1237 11.3478L13.2594 8.8186L13.1013 1.83522C13.1006 1.78049 13.086 1.72682 13.0589 1.67902C13.0318 1.63122 12.993 1.5908 12.9461 1.56138L12.9433 1.53524ZM14.114 0.90639C14.0924 0.882416 14.0656 0.863535 14.0356 0.851148C14.0055 0.838761 13.9731 0.833185 13.9405 0.834836C13.8536 0.831737 13.7681 0.856884 13.6972 0.90639C13.6547 0.939611 13.6202 0.981599 13.596 1.02939C13.5718 1.07718 13.5586 1.12961 13.5573 1.18297V1.21462L13.3979 8.80071L13.486 10.196L13.5587 11.5555C13.5609 11.6555 13.6034 11.7506 13.6769 11.8197C13.7503 11.8889 13.8487 11.9265 13.9503 11.9243C14.052 11.9221 14.1486 11.8803 14.2189 11.808C14.2892 11.7358 14.3274 11.639 14.3252 11.539L14.5 8.76906L14.3252 1.15133C14.3236 1.08645 14.3051 1.02308 14.2712 0.967372C14.2374 0.911667 14.1895 0.865532 14.1322 0.833461M24.555 5.16798C24.0851 5.16798 23.6277 5.26705 23.2277 5.43355C23.1428 4.51098 22.8409 3.62048 22.3459 2.83247C21.8509 2.04446 21.1764 1.38054 20.3756 0.893208C19.5749 0.405874 18.6699 0.108488 17.7322 0.0245616C16.7945 -0.0593652 15.8498 0.0724693 14.9728 0.409642C14.7098 0.512844 14.6553 0.617423 14.6399 0.823829V11.5734C14.6458 11.6739 14.6877 11.769 14.7581 11.8421C14.8285 11.9151 14.9229 11.9613 15.0245 11.9725H24.5732C25.023 11.9765 25.469 11.8926 25.8855 11.7256C26.302 11.5586 26.6806 11.312 26.9994 10.9998C27.3182 10.6877 27.5708 10.3165 27.7426 9.90752C27.9144 9.49859 28.0018 9.06017 28 8.6177C28.0022 7.72126 27.6425 6.86065 26.9999 6.22509C26.3573 5.58954 25.4844 5.23107 24.5732 5.22852"
    fill="#FF6602" />
</svg>