<svg width="17" height="16" viewBox="0 0 17 16" fill="none" xmlns="http://www.w3.org/2000/svg">
  <path
    d="M8.56836 0C4.15011 0 0.568359 3.58181 0.568359 8C0.568359 12.4185 4.15017 16 8.56836 16C12.9869 16 16.5684 12.4185 16.5684 8C16.5684 3.58213 12.9869 0.0004375 8.56823 0.0004375L8.56836 0ZM12.237 11.5384C12.0937 11.7734 11.7861 11.8479 11.5511 11.7036C9.6728 10.5563 7.3083 10.2964 4.52361 10.9327C4.39466 10.962 4.25932 10.939 4.14737 10.8686C4.03541 10.7982 3.95601 10.6862 3.92661 10.5573C3.91197 10.4934 3.91006 10.4273 3.92099 10.3628C3.93192 10.2982 3.95547 10.2364 3.9903 10.181C4.02513 10.1255 4.07056 10.0775 4.12397 10.0396C4.17739 10.0017 4.23775 9.97472 4.30161 9.96019C7.34911 9.26394 9.96305 9.56369 12.0718 10.8524C12.3068 10.9967 12.3813 11.3034 12.237 11.5384ZM13.2162 9.36006C13.0356 9.6535 12.6516 9.74619 12.3584 9.56563C10.208 8.24388 6.93005 7.86106 4.38661 8.63313C4.05673 8.73275 3.70836 8.54688 3.60823 8.21756C3.50886 7.88769 3.69486 7.53994 4.02417 7.43969C6.92948 6.55806 10.5414 6.98513 13.0109 8.50263C13.3041 8.68325 13.3968 9.06719 13.2162 9.36006ZM13.3003 7.09175C10.7219 5.56025 6.46798 5.41937 4.0063 6.16663C3.61098 6.2865 3.19292 6.06331 3.07317 5.668C2.95336 5.2725 3.1763 4.85475 3.57192 4.73456C6.39773 3.87669 11.0955 4.0425 14.0639 5.80475C14.4203 6.01575 14.5368 6.475 14.3257 6.83006C14.1155 7.18569 13.655 7.30288 13.3007 7.09175H13.3003Z"
    fill="white" />
</svg>