<svg width="24" height="16" viewBox="0 0 24 16" fill="none" xmlns="http://www.w3.org/2000/svg">
  <path
    d="M9.71415 11.4286L15.6456 8L9.71415 4.57143V11.4286ZM22.9256 2.48C23.0741 3.01714 23.177 3.73714 23.2456 4.65143C23.3256 5.56571 23.3599 6.35429 23.3599 7.04L23.4284 8C23.4284 10.5029 23.2456 12.3429 22.9256 13.52C22.6399 14.5486 21.977 15.2114 20.9484 15.4971C20.4113 15.6457 19.4284 15.7486 17.9199 15.8171C16.4341 15.8971 15.0741 15.9314 13.817 15.9314L11.9999 16C7.21129 16 4.22843 15.8171 3.05129 15.4971C2.02272 15.2114 1.35986 14.5486 1.07415 13.52C0.925575 12.9829 0.822718 12.2629 0.754146 11.3486C0.674146 10.4343 0.63986 9.64571 0.63986 8.96L0.571289 8C0.571289 5.49714 0.754146 3.65714 1.07415 2.48C1.35986 1.45143 2.02272 0.788572 3.05129 0.502857C3.58843 0.354286 4.57129 0.251428 6.07986 0.182857C7.56558 0.102857 8.92558 0.0685714 10.1827 0.0685714L11.9999 0C16.7884 0 19.7713 0.182857 20.9484 0.502857C21.977 0.788572 22.6399 1.45143 22.9256 2.48Z"
    fill="currentColor" />
</svg>