<svg viewBox="0 0 25 24" fill="none" xmlns="http://www.w3.org/2000/svg">
    <path
        d="M23.5492 4.67651V5.23531H22.5058V5.74792H21.9654V4.14525H21.4153V4.67651H20.9123V5.21666H20.4092V4.6854H19.8875V6.25963H20.4092V6.78112H20.4057V7.30883H19.8778V7.81521H16.7556V7.27507H16.1868V6.79089H15.6838V5.22643H16.1868V4.16391H16.7556V2.06818H16.2055V1.53692H15.6553V1.03409H13.5774V1.55558H13.0646V2.63587H12.5616V5.25308H13.0646V5.75591H12.5518V6.2774H10.9396V5.75591H9.92378V5.25308H8.91771V4.66585H8.34002V3.6513H8.90882V2.60833H9.43052V2.06818H8.3498V1.56535H7.35262V0.502832H6.7936V1.04298H6.29057V0.530372H5.78754V0H5.2374V1.03409H4.72459V5.24509H5.25606V5.74792H6.29057V6.27918H6.84959V6.75447H7.35262V8.43087H6.84959V11.0303H6.31812V13.6298H6.84959V14.6079H4.6686V14.1051H3.13106V14.6079H2.62803V15.6695H2.09656V16.7311H1.64952V17.7928H1.09049V18.2396H0.559023V18.8269H0V19.3581H1.0345V18.8082H1.56598V19.3208H2.07878V19.8423H3.10262V19.3226H3.61277V19.8423H4.18423V17.7466H3.67142V17.2438H4.18423V16.7223H5.78754V17.2349H9.93444V17.7475H10.4472V18.8375H9.94422V19.3315H9.43141V20.3745H8.9186V20.8684H8.33114V21.3997H9.43052V20.8782H10.4366V20.3656H11.5084V19.8716H12.0212V19.3501H12.5527V18.8473H13.0744V18.2698H15.171V18.8198H16.7556V19.3324H17.7803V20.8977H18.2931V21.3917H17.2684V21.9505H16.7467V22.472H16.1877V22.9846H17.2684V24H18.2931V23.4972H19.3925V24H19.9142V23.4874H20.4172V20.8791H20.9203V18.2707H19.8858V17.7581H18.7953V16.2114H19.373V15.1214H19.8858V13.5933H20.3986V11.4976H19.8858V9.88606H22.5138V9.40189H23.0168V7.80633H23.5483V6.26941H24.0424V4.67651H23.5492ZM9.44207 10.9806H8.91771V14.1175H8.33736V13.0345H7.83433V10.9948H8.33736L8.33291 9.90472H8.91771V9.39478H9.44207V10.9806ZM13.0762 10.436H12.5802V13.0416H12.0212V15.1374H10.9654V11.9987H11.5244V8.89906H12.0203V8.36069H12.5794V7.80189H13.0753V10.436H13.0762ZM15.1621 12.529V14.6248H14.659V16.2088H13.5783V15.1374H14.156V12.529H14.659V9.92071L15.1621 9.9216V8.36424H15.6935V8.87685H16.2152V9.91982H15.6891V12.529H15.1621ZM18.3118 14.6257H17.7803V15.1383H17.2862V15.6322H16.7645V16.2097H16.2143V14.6257H16.7645V12.5202H17.2631V10.4333H17.8079V10.9735H18.3109V14.6257H18.3118Z"
        fill="black" />
</svg>